PathFileType	4	(X/Y/Z)	F:\MotionCapture\20160217\3\Generated_files\2_Test03-Dynamic.trc
DataRate	CameraRate	NumFrames	NumMarkers	Units	OrigDataRate	OrigDataStartFrame	OrigNumFrames
120.00	120.00	       9	39	mm	120.00	526	       841
Frame#	Time	Top.Head			Front.Head			Rear.Head			R.Shoulder			R.Offset			R.Elbow			R.Wrist			L.Shoulder			L.Elbow			L.Wrist			R.ASIS			L.ASIS			V.Sacral			R.Thigh			R.Knee			R.Shank			R.Ankle			R.Heel			R.Toe			L.Thigh			L.Knee			L.Shank			L.Ankle			L.Heel			L.Toe			R1			R2			R3			R4			R5			R6			R7			L1			L2			L3			L4			L5			L6			L7			V_Mid_ASIS			V_Pelvis_Origin			V_R.Hip_JC			V_L.Hip_JC			V_R.Knee_JC			V_L.Knee_JC			V_R.Ankle_JC			V_L.Ankle_JC			V_Mid_Hip			V_Mid_Shoulder			V_R.Hand			V_L.Hand			V_R.Toe_Offset_Static			V_L.Toe_Offset_Static			V_R.Toe_Offset			V_L.Toe_Offset			
		X1	Y1	Z1	X2	Y2	Z2	X3	Y3	Z3	X4	Y4	Z4	X5	Y5	Z5	X6	Y6	Z6	X7	Y7	Z7	X8	Y8	Z8	X9	Y9	Z9	X10	Y10	Z10	X11	Y11	Z11	X12	Y12	Z12	X13	Y13	Z13	X14	Y14	Z14	X15	Y15	Z15	X16	Y16	Z16	X17	Y17	Z17	X18	Y18	Z18	X19	Y19	Z19	X20	Y20	Z20	X21	Y21	Z21	X22	Y22	Z22	X23	Y23	Z23	X24	Y24	Z24	X25	Y25	Z25	X26	Y26	Z26	X27	Y27	Z27	X28	Y28	Z28	X29	Y29	Z29	X30	Y30	Z30	X31	Y31	Z31	X32	Y32	Z32	X33	Y33	Z33	X34	Y34	Z34	X35	Y35	Z35	X36	Y36	Z36	X37	Y37	Z37	X38	Y38	Z38	X39	Y39	Z39	

526	4.375	-1222.85327	210.18356	1728.87512	-1326.07849	205.49020	1635.67188	-1108.07300	206.79779	1670.14844	-1155.00061	400.40964	1431.44543	-1021.08527	142.06778	1278.62927	-1155.85376	513.21320	1108.88281	-1334.30701	511.95117	916.06818	-1165.81799	-3.80795	1430.05359	-1141.75244	-109.01669	1111.07288	-1247.23206	-125.03828	875.84705	-1232.96204	345.92175	950.48285	-1231.69275	61.01332	961.42651	-1007.27777	195.03224	950.59735	-1248.57043	281.51691	567.28058	-1167.22510	328.91522	457.25415	-1146.70508	242.21262	228.97099	-1074.53235	309.29150	65.73904	-1009.15369	246.22978	42.31688	-1218.49304	296.79324	40.81372	-1360.41235	68.26798	675.07434	-1304.48389	10.67299	490.58463	-1290.08716	91.64963	348.53635	-1110.83508	74.18327	132.22372	-1065.79980	151.51733	132.18555	-1225.36975	42.81717	65.97482	-1264.27039	276.85178	38.00159	-1225.92578	257.60831	43.60710	-1128.67627	218.49876	50.98612	-1052.40283	216.04251	41.66890	-1040.33850	290.62021	41.53360	-1113.43652	318.86230	36.89823	-1178.24780	337.84561	35.76837	-1272.70471	48.32154	51.13627	-1248.46863	72.45258	63.82206	-1184.32239	140.07991	99.07306	-1108.79260	167.86374	119.90717	-1073.31323	104.64429	124.70203	-1130.24622	52.75750	91.00441	-1183.04822	26.89333	74.82896	
527	4.383	-1233.98865	208.99353	1728.31396	-1337.44006	204.35143	1634.92822	-1120.00574	206.73177	1669.10022	-1166.93799	400.06168	1431.65027	-1032.20618	142.88708	1277.14905	-1171.61487	515.24768	1109.95386	-1355.93884	510.87503	922.61273	-1176.69238	-3.67331	1428.96313	-1147.77405	-109.29556	1110.78174	-1247.72205	-127.04273	872.76044	-1243.07373	346.88559	949.16968	-1243.57678	61.33987	961.04291	-1018.38416	194.03601	949.66486	-1254.29333	281.44421	565.02380	-1171.52869	328.88797	456.49402	-1148.05530	241.63150	228.52325	-1074.65649	309.08722	65.78719	-1009.68146	246.33484	42.32021	-1218.70886	296.85803	40.66215	-1374.02417	70.30315	677.33716	-1321.23535	11.22907	491.80222	-1313.16504	92.16118	349.34970	-1144.74927	73.67936	123.70529	-1099.61401	150.82104	121.91216	-1263.77637	43.33092	64.81094	-1264.44434	276.82776	37.90292	-1226.01233	257.64810	43.61176	-1128.68042	218.25362	50.72684	-1052.60278	216.16295	41.56309	-1040.58472	290.47067	41.72952	-1113.45386	318.78397	36.93477	-1178.23120	337.90955	35.72726	-1311.75488	50.07099	52.33629	-1286.69226	74.54395	63.57640	-1220.63464	141.29526	95.88787	-1143.17102	167.15088	111.97054	-1111.36047	104.42611	112.72721	-1166.73022	53.08216	83.04438	-1221.62134	27.55350	70.86048	
528	4.392	-1245.63721	207.71376	1727.32800	-1348.84338	203.14815	1634.20679	-1130.61853	205.42334	1667.95447	-1178.60217	399.93427	1431.24146	-1043.87256	143.39471	1276.27966	-1186.95422	517.62897	1110.36560	-1376.90503	510.16281	928.86798	-1187.63513	-4.37049	1427.35120	-1153.32190	-109.67393	1110.05359	-1247.90796	-128.37727	869.77917	-1253.65186	347.18555	947.70239	-1255.27124	61.88362	960.14386	-1029.02991	194.09253	947.85089	-1259.75244	281.46506	562.98865	-1174.98035	328.50681	455.39194	-1148.78394	241.31863	228.20412	-1074.99097	309.01984	65.83458	-1009.99268	246.29613	42.14594	-1218.82458	296.92422	40.42764	-1386.62842	72.31821	678.32922	-1338.12854	12.30863	493.04919	-1335.77710	92.79173	349.83353	-1179.97302	72.67622	115.78584	-1133.85364	148.68013	111.64132	-1302.32996	44.00636	63.99057	-1264.62268	276.88068	37.60472	-1227.06873	257.22229	44.23333	-1128.62366	218.11983	50.42116	-1052.48389	216.26282	41.91224	-1040.59497	290.42395	41.91353	-1113.46155	318.75925	36.94386	-1178.23633	338.04095	35.63687	-1350.82446	51.67462	54.70546	-1324.26013	75.89406	64.11754	-1256.02954	141.38770	92.77934	-1178.68103	166.17815	105.19990	-1143.59119	101.65623	104.67510	-1204.00232	51.99384	76.23412	-1258.25085	28.14364	65.40163																																																	-2755.93481	964.51276	-552.24408	
529	4.400	-1257.32300	206.19600	1726.32617	-1360.47485	201.74525	1632.98865	-1142.56628	205.05179	1667.23059	-1190.48755	399.39743	1430.72937	-1054.98718	144.12569	1275.20142	-1201.61987	519.39514	1110.85889	-1397.41895	510.07895	935.01361	-1198.95618	-4.31794	1425.24268	-1159.20007	-109.95158	1109.05408	-1247.72107	-129.60922	866.68414	-1264.63245	347.02057	946.13068	-1266.59656	62.06936	958.94891	-1040.22583	193.20067	946.89954	-1265.92908	281.37769	560.69849	-1179.72229	328.63730	454.46454	-1151.22217	241.58372	227.32143	-1075.42773	308.93280	65.95669	-1010.13904	246.29105	42.34773	-1219.04504	296.98822	40.33199	-1399.29321	73.72907	679.21722	-1354.37366	13.49163	493.72031	-1358.24683	93.48375	350.70682	-1215.63269	71.50608	108.00447	-1168.39673	146.59624	102.21854	-1341.49915	44.51710	64.85371	-1264.84399	276.95624	37.57211	-1227.17676	257.24097	44.15073	-1128.47388	217.77097	49.89278	-1052.48706	216.22453	42.17362	-1041.03699	290.33194	42.17116	-1112.73230	318.31937	36.48547	-1178.26233	338.27090	35.59600	-1389.02429	52.81456	57.82477	-1361.84558	76.52531	65.20196	-1291.63635	140.78192	90.37060	-1212.06482	166.05890	96.63243	-1189.67969	98.07507	90.28250	-1241.52209	51.11987	69.94563	-1296.88416	27.62071	62.72583																																																	-2896.73389	1020.36951	-597.92773	-1211.65955	115.91960	82.00158	
530	4.408	-1268.77954	204.69649	1724.90747	-1372.29480	200.41016	1631.56201	-1154.07922	203.82419	1665.68958	-1202.67944	399.37909	1429.74255	-1067.47021	144.55092	1273.55212	-1217.63806	521.96716	1111.19092	-1418.15955	508.87399	941.25806	-1210.04822	-4.89206	1423.18787	-1165.34167	-110.59775	1107.81958	-1248.09656	-131.71568	863.71051	-1276.36365	346.70233	944.86871	-1278.34436	62.14038	957.47986	-1050.65869	192.72206	944.92957	-1272.27539	281.08664	558.42047	-1183.71863	328.26059	453.43253	-1151.42920	240.38116	226.62160	-1076.46594	308.48029	66.32402	-1010.21088	246.16742	42.59835	-1219.14600	297.07614	40.13838	-1412.71545	75.38457	679.48230	-1370.85498	14.57857	494.09930	-1380.25769	94.09176	351.02332	-1250.76196	69.37757	101.32956	-1202.56580	143.55466	92.72685	-1377.79272	44.38614	64.11689	-1265.19470	277.15353	37.42068	-1227.34338	257.25989	44.06902	-1128.98462	217.83250	49.42848	-1052.98010	216.78653	41.92515	-1041.26404	290.15262	42.43301	-1112.74109	318.21597	36.43819	-1178.26746	338.51465	35.47137	-1427.26917	53.09771	61.30747	-1399.23901	76.35279	67.12336	-1326.76819	139.28149	87.30438	-1246.74487	163.89281	89.56068	-1221.23328	96.98827	82.36690	-1279.12500	49.68336	64.58768	-1334.88757	27.24468	60.81271																																																	-1240.91479	287.37750	40.20369	
531	4.417	-1280.75940	203.37962	1723.19397	-1384.07751	199.23943	1629.74304	-1166.70801	203.26643	1664.23352	-1214.48401	398.99637	1428.70874	-1077.58276	144.70628	1271.63074	-1232.88184	523.64691	1111.16956	-1438.39197	507.88513	947.24152	-1221.69092	-5.30985	1420.83411	-1171.18665	-110.80360	1106.44238	-1248.43335	-133.21317	860.48096	-1286.77710	347.03391	942.39868	-1289.89441	62.20131	955.39844	-1062.34534	192.42221	942.38489	-1279.05676	281.02917	556.26947	-1188.15625	328.22083	452.30276	-1153.75037	240.15805	226.41869	-1076.42310	308.35510	66.43159	-1010.48004	245.97144	43.06703	-1220.36926	297.72983	40.17520	-1425.51831	76.70574	679.36011	-1386.63684	16.35456	493.81808	-1402.26172	94.93751	351.51303	-1285.84631	66.89153	95.46005	-1238.58948	141.30832	84.22374	-1415.05103	43.76389	65.04245	-1265.53430	277.38788	37.21269	-1227.41406	257.47198	44.10659	-1129.17175	218.19763	49.22998	-1052.74658	216.16232	42.15348	-1040.98499	290.21527	42.96039	-1112.67151	318.15091	36.38208	-1178.09351	338.76740	35.39197	-1464.44604	52.64216	65.71728	-1435.93335	75.58962	69.24000	-1361.99304	137.92322	85.54843	-1281.37793	161.45395	82.55915	-1250.68811	92.92078	77.84002	-1316.94373	47.33576	60.04884	-1372.66528	25.88448	60.09148																																																	-1242.01758	287.48428	39.71494	
532	4.425	-1293.01965	202.26990	1721.40149	-1395.80981	197.90131	1627.86218	-1177.74548	202.56055	1662.44629	-1226.70764	398.59137	1427.21558	-1089.64612	144.47270	1269.55664	-1248.55139	525.44940	1110.84863	-1458.09302	506.98657	952.92188	-1232.93689	-5.58327	1418.13232	-1177.37939	-110.96073	1105.24194	-1248.75891	-134.50226	857.56799	-1295.85046	346.95554	940.42529	-1301.68445	61.70374	953.12341	-1073.00916	191.68288	940.45270	-1285.88525	281.20398	553.87476	-1191.88049	327.88553	451.16956	-1155.43054	240.03128	225.52568	-1076.54370	308.06158	66.61348	-1010.00525	245.09186	43.85321	-1219.11719	297.36780	40.02930	-1438.51855	77.64050	678.69531	-1402.43896	17.88081	493.02161	-1423.36951	95.73339	351.75171	-1321.60632	64.61954	89.54963	-1271.77637	137.37776	73.18127	-1451.81311	42.18002	67.68233	-1267.00513	278.41821	38.22472	-1227.85803	258.31863	44.68608	-1129.42285	218.06886	48.98052	-1052.72681	216.13094	42.35030	-1040.93604	289.90494	43.46686	-1112.98132	318.37891	36.81070	-1178.09460	338.85287	35.25977	-1501.03687	51.80458	70.81577	-1472.36755	74.62836	72.81052	-1396.77795	135.99156	83.81883	-1316.11853	158.82164	75.72578	-1285.04041	89.83879	69.66038	-1353.78882	44.42145	57.08223	-1410.23804	23.91309	59.96852																																																	-1242.36902	287.74261	39.43727	
533	4.433	-1304.84692	200.97156	1719.00415	-1407.98853	196.53040	1625.61267	-1190.57117	201.55466	1659.91992	-1238.78345	398.20721	1425.27026	-1102.01196	144.90582	1267.24634	-1263.90527	527.09491	1110.33093	-1477.78674	506.04819	958.83655	-1244.95251	-6.62073	1415.54248	-1183.62561	-111.62337	1103.54138	-1249.59351	-135.87445	854.78815	-1306.78967	346.95139	938.34692	-1313.11719	61.78690	950.50067	-1084.66138	191.06026	938.53845	-1292.55701	281.31070	551.70538	-1196.42957	327.83133	450.31308	-1158.79456	240.66667	224.74149	-1076.01184	308.07245	66.74812	-1010.34814	245.14618	44.28203	-1219.44250	297.52969	39.96095	-1451.15088	78.24667	677.56769	-1417.81287	19.70800	492.04111	-1444.68799	96.60850	351.85522	-1356.17493	61.68224	85.57647	-1307.06445	133.66942	65.43219	-1488.19104	40.12015	70.56770	-1263.07288	277.26910	34.94871	-1228.06372	258.47299	44.47731	-1129.90771	217.77562	48.44308	-1053.11853	215.92081	42.47060	-1041.13928	289.49225	43.75685	-1112.57739	318.55313	36.51442	-1178.14697	338.92273	35.21991	-1536.79163	49.92811	76.25820	-1507.99670	73.16659	75.61021	-1431.36841	133.54898	82.46670	-1351.61267	155.84009	70.40919	-1321.60339	87.50584	63.32238	-1390.86426	42.03534	54.75987	-1446.86292	21.62026	61.46515	
534	4.442	-1316.90662	199.84610	1716.77649	-1419.83679	195.20206	1623.26184	-1201.81677	200.94455	1657.65869	-1250.78345	397.73495	1423.28809	-1112.45435	144.31567	1265.12585	-1279.48804	528.76172	1109.57629	-1496.88184	505.23108	964.06842	-1256.08374	-6.87526	1412.42383	-1189.77625	-111.84532	1101.84656	-1250.62744	-137.73186	852.11481	-1317.55847	346.91745	936.21814	-1325.32800	61.21434	947.68304	-1096.03479	190.02559	936.28534	-1299.13269	281.77951	548.90692	-1200.55811	327.69357	449.07816	-1161.73535	240.43361	223.91275	-1076.32690	307.66876	66.98732	-1010.64612	244.77327	44.78102	-1219.63989	297.64044	39.90197	-1463.80347	79.29677	675.73279	-1433.28101	21.54534	490.65179	-1465.01257	97.21529	351.87976	-1391.43506	58.64021	82.21201	-1342.36133	130.13736	58.75243	-1523.62781	37.48930	74.03197	-1262.96265	277.40875	34.30908	-1226.66870	258.07315	42.53913	-1130.60229	218.22858	48.38196	-1053.84607	215.47998	42.83159	-1041.25049	289.06451	44.16750	-1113.01123	318.25314	36.53766	-1177.99670	338.95361	35.04853	-1572.02271	48.23211	81.82376	-1543.07129	70.91496	79.91695	-1465.75342	131.03090	81.47686	-1385.63989	152.23778	65.35474	-1357.18640	84.08557	58.27821	-1427.34753	38.77105	53.22404	-1483.06384	18.55895	62.82380																																																	-1282.20239	407.08224	906.87775	
